<svg width="264" height="72" viewBox="0 0 264 72" fill="none" xmlns="http://www.w3.org/2000/svg">
<g filter="url(#filter0_d_325_284)">
<path d="M30.3398 30.4688H26.7949C25.291 30.4688 24.207 30.0879 23.543 29.3262C22.8789 28.5449 22.5469 27.5195 22.5469 26.25C22.5469 23.4375 24.6465 22.0312 28.8457 22.0312C32.791 22.0312 35.7598 22.6172 37.752 23.7891L36.0527 25.0781C34.6855 24.4531 32.2832 24.1406 28.8457 24.1406C27.166 24.1406 26.0332 24.3262 25.4473 24.6973C24.8809 25.0684 24.5977 25.5859 24.5977 26.25C24.5977 26.9141 24.7539 27.4316 25.0664 27.8027C25.3789 28.1738 25.9551 28.3594 26.7949 28.3594H30.4277C33.0645 28.3594 35.4375 28.8086 37.5469 29.707C39.6758 30.6055 41.4238 31.8359 42.791 33.3984C44.1582 34.9414 45.2031 36.7285 45.9258 38.7598C46.6484 40.7715 47.0098 42.9297 47.0098 45.2344C47.0098 47.1094 46.7461 48.8867 46.2188 50.5664C45.6914 52.2461 44.8906 53.7891 43.8164 55.1953C42.7617 56.6016 41.4824 57.8223 39.9785 58.8574C38.4941 59.873 36.7168 60.6641 34.6465 61.2305C32.5957 61.8164 30.3691 62.1094 27.9668 62.1094C24.1973 62.1094 20.6621 61.5332 17.3613 60.3809C14.0801 59.248 11.3457 57.6562 9.1582 55.6055L10.8574 54.3457C12.8496 56.1426 15.3398 57.5391 18.3281 58.5352C21.3359 59.5117 24.5488 60 27.9668 60C30.6426 60 33.0547 59.6191 35.2031 58.8574C37.3711 58.0762 39.1484 57.0117 40.5352 55.6641C41.9414 54.3164 43.0156 52.7539 43.7578 50.9766C44.5195 49.1992 44.9004 47.2852 44.9004 45.2344C44.9004 42.5195 44.3535 40.0684 43.2598 37.8809C42.166 35.6738 40.4961 33.8867 38.25 32.5195C36.0234 31.1523 33.3867 30.4688 30.3398 30.4688ZM26.7949 32.5781H30.1348C34.0996 32.5781 37.1953 33.7891 39.4219 36.2109C41.668 38.6328 42.791 41.6406 42.791 45.2344C42.791 48.8867 41.4922 51.9141 38.8945 54.3164C36.2969 56.6992 32.6543 57.8906 27.9668 57.8906C24.8418 57.8906 21.9219 57.4609 19.207 56.6016C16.4922 55.7422 14.2363 54.5312 12.4395 52.9688L14.0801 51.6504C15.6816 52.959 17.6934 53.9746 20.1152 54.6973C22.5566 55.4199 25.1738 55.7812 27.9668 55.7812C32.0879 55.7812 35.2324 54.7949 37.4004 52.8223C39.5879 50.8496 40.6816 48.3203 40.6816 45.2344C40.6816 42.1875 39.7637 39.668 37.9277 37.6758C36.1113 35.6836 33.5039 34.6875 30.1055 34.6875H26.7949C23.9434 34.6875 21.8047 33.9062 20.3789 32.3438C18.9531 30.7812 18.2402 28.75 18.2402 26.25C18.2402 23.75 19.1191 21.7187 20.877 20.1562C22.6543 18.5938 25.3105 17.8125 28.8457 17.8125C31.3262 17.8125 33.6309 18.1055 35.7598 18.6914C37.8887 19.2578 39.6465 20.0781 41.0332 21.1523L39.3633 22.4414C36.9219 20.7617 33.416 19.9219 28.8457 19.9219C25.8965 19.9219 23.7383 20.5078 22.3711 21.6797C21.0234 22.832 20.3496 24.3555 20.3496 26.25C20.3496 28.1641 20.8477 29.6973 21.8438 30.8496C22.8594 32.002 24.5098 32.5781 26.7949 32.5781ZM26.7949 36.7969H30.0176C32.8691 36.7969 35.0078 37.5879 36.4336 39.1699C37.8594 40.752 38.5723 42.7734 38.5723 45.2344C38.5723 47.7344 37.6836 49.7656 35.9062 51.3281C34.1484 52.8906 31.502 53.6719 27.9668 53.6719C25.4863 53.6719 23.1719 53.3887 21.0234 52.8223C18.8945 52.2363 17.1367 51.4062 15.75 50.332L17.4199 49.043C19.8613 50.7227 23.377 51.5625 27.9668 51.5625C30.916 51.5625 33.0645 50.9863 34.4121 49.834C35.7793 48.6621 36.4629 47.1289 36.4629 45.2344C36.4629 43.3398 35.9551 41.8164 34.9395 40.6641C33.9238 39.4922 32.2734 38.9062 29.9883 38.9062H26.7949C22.791 38.9062 19.6562 37.7148 17.3906 35.332C15.1445 32.9297 14.0215 29.9023 14.0215 26.25C14.0215 22.5977 15.3203 19.5801 17.918 17.1973C20.5156 14.7949 24.1582 13.5938 28.8457 13.5938C31.9707 13.5938 34.8809 14.0234 37.5762 14.8828C40.291 15.7422 42.5469 16.9531 44.3438 18.5156L42.7031 19.834C41.1016 18.5254 39.0898 17.5098 36.668 16.7871C34.2461 16.0645 31.6387 15.7031 28.8457 15.7031C24.7246 15.7031 21.5703 16.6895 19.3828 18.6621C17.2148 20.6348 16.1309 23.1641 16.1309 26.25C16.1309 29.3164 17.0488 31.8457 18.8848 33.8379C20.7207 35.8105 23.3574 36.7969 26.7949 36.7969ZM26.7949 41.0156H30.0176C31.5215 41.0156 32.6055 41.4062 33.2695 42.1875C33.9336 42.9688 34.2656 43.9844 34.2656 45.2344C34.2656 48.0469 32.166 49.4531 27.9668 49.4531C24.002 49.4531 21.0234 48.8672 19.0312 47.6953L20.7305 46.4062C22.0977 47.0312 24.5098 47.3438 27.9668 47.3438C29.6465 47.3438 30.7695 47.1582 31.3359 46.7871C31.9219 46.416 32.2148 45.8984 32.2148 45.2344C32.2148 44.5898 32.0488 44.082 31.7168 43.7109C31.4043 43.3203 30.8184 43.125 29.959 43.125H26.7949C24.0996 43.125 21.6582 42.6855 19.4707 41.8066C17.3027 40.9277 15.5156 39.7168 14.1094 38.1738C12.7227 36.6309 11.6582 34.8438 10.916 32.8125C10.1738 30.7812 9.80273 28.5938 9.80273 26.25C9.80273 24.375 10.0664 22.5977 10.5938 20.918C11.1211 19.2383 11.9121 17.6953 12.9668 16.2891C14.041 14.8828 15.3203 13.6719 16.8047 12.6562C18.3086 11.6211 20.0859 10.8203 22.1367 10.2539C24.207 9.66797 26.4434 9.375 28.8457 9.375C32.6152 9.375 36.1406 9.95117 39.4219 11.1035C42.7031 12.2363 45.4375 13.8281 47.625 15.8789L45.9258 17.1387C43.9336 15.3418 41.4434 13.9551 38.4551 12.9785C35.4668 11.9824 32.2637 11.4844 28.8457 11.4844C26.1699 11.4844 23.748 11.875 21.5801 12.6562C19.4316 13.418 17.6543 14.4727 16.248 15.8203C14.8613 17.168 13.7871 18.7305 13.0254 20.5078C12.2832 22.2852 11.9121 24.1992 11.9121 26.25C11.9121 29.0039 12.4688 31.4844 13.582 33.6914C14.6953 35.8984 16.3945 37.6758 18.6797 39.0234C20.9648 40.3516 23.6699 41.0156 26.7949 41.0156ZM85.8574 38.6719V11.4844H87.9668V38.6719C87.9668 41.6406 86.7949 44.1797 84.4512 46.2891C82.1074 48.3984 79.2949 49.4531 76.0137 49.4531C72.7324 49.4531 69.9199 48.3984 67.5762 46.2891C65.2324 44.1797 64.0605 41.6406 64.0605 38.6719V11.4844H66.1699V38.6719C66.1699 41.0547 67.127 43.0957 69.041 44.7949C70.9746 46.4941 73.2988 47.3438 76.0137 47.3438C78.7285 47.3438 81.043 46.4941 82.957 44.7949C84.8906 43.0957 85.8574 41.0547 85.8574 38.6719ZM90.0762 38.6719V11.4844H92.1855V38.6719C92.1855 40.7031 91.7559 42.6465 90.8965 44.502C90.0371 46.3379 88.8848 47.9297 87.4395 49.2773C85.9941 50.625 84.2754 51.6992 82.2832 52.5C80.291 53.2812 78.2012 53.6719 76.0137 53.6719C73.8262 53.6719 71.7363 53.2812 69.7441 52.5C67.752 51.6992 66.0332 50.625 64.5879 49.2773C63.1426 47.9297 61.9902 46.3379 61.1309 44.502C60.2715 42.6465 59.8418 40.7031 59.8418 38.6719V11.4844H61.9512V38.6719C61.9512 40.9961 62.5762 43.1543 63.8262 45.1465C65.0957 47.1191 66.8047 48.6816 68.9531 49.834C71.1211 50.9863 73.4746 51.5625 76.0137 51.5625C78.5527 51.5625 80.8965 50.9863 83.0449 49.834C85.2129 48.6816 86.9219 47.1191 88.1719 45.1465C89.4414 43.1543 90.0762 40.9961 90.0762 38.6719ZM94.2949 38.6719V11.4844H96.4043V38.6719C96.4043 41.2695 95.8574 43.7598 94.7637 46.1426C93.6895 48.5059 92.2441 50.5469 90.4277 52.2656C88.6113 53.9844 86.4434 55.3516 83.9238 56.3672C81.4043 57.3828 78.7676 57.8906 76.0137 57.8906C73.2598 57.8906 70.623 57.3828 68.1035 56.3672C65.584 55.3516 63.416 53.9844 61.5996 52.2656C59.7832 50.5469 58.3281 48.5059 57.2344 46.1426C56.1602 43.7598 55.623 41.2695 55.623 38.6719V11.4844H57.7324V38.6719C57.7324 41.7578 58.5527 44.6191 60.1934 47.2559C61.834 49.873 64.0508 51.9531 66.8438 53.4961C69.6562 55.0195 72.7129 55.7812 76.0137 55.7812C79.3145 55.7812 82.3613 55.0195 85.1543 53.4961C87.9668 51.9531 90.1934 49.873 91.834 47.2559C93.4746 44.6191 94.2949 41.7578 94.2949 38.6719ZM98.5137 38.6719V11.4844H100.623V38.6719C100.623 42.8906 99.5195 46.8066 97.3125 50.4199C95.1055 54.0137 92.1074 56.8652 88.3184 58.9746C84.5488 61.0645 80.4473 62.1094 76.0137 62.1094C71.5801 62.1094 67.4688 61.0645 63.6797 58.9746C59.9102 56.8652 56.9219 54.0137 54.7148 50.4199C52.5078 46.8066 51.4043 42.8906 51.4043 38.6719V11.4844H53.5137V38.6719C53.5137 41.543 54.1094 44.2969 55.3008 46.9336C56.4922 49.5703 58.0938 51.8457 60.1055 53.7598C62.1172 55.6543 64.5098 57.168 67.2832 58.3008C70.0762 59.4336 72.9863 60 76.0137 60C79.041 60 81.9414 59.4336 84.7148 58.3008C87.5078 57.168 89.9102 55.6543 91.9219 53.7598C93.9336 51.8457 95.5352 49.5703 96.7266 46.9336C97.918 44.2969 98.5137 41.543 98.5137 38.6719ZM140.467 36.6504L138.357 33.1641V11.4844H140.467V36.6504ZM144.686 43.5645L142.576 40.0195V11.4844H144.686V43.5645ZM148.904 50.5664L146.795 46.9922V11.4844H148.904V50.5664ZM118.67 34.834L120.779 38.3203V60H118.67V34.834ZM114.451 27.9199L116.561 31.4648V60H114.451V27.9199ZM110.232 20.918L112.342 24.4922V60H110.232V20.918ZM110.965 11.4844H113.426L143.25 60H140.789L110.965 11.4844ZM115.945 11.4844H118.436L148.23 60H145.711L115.945 11.4844ZM120.896 11.4844H123.357L151.014 56.5723V11.4844H153.123V60C153.123 60 152.293 60 150.633 60L120.896 11.4844ZM108.123 14.9121V60H106.014V11.4844C106.014 11.4844 106.854 11.4844 108.533 11.4844L138.27 60H135.838L108.123 14.9121ZM193.143 36.6504L191.033 33.1641V11.4844H193.143V36.6504ZM197.361 43.5645L195.252 40.0195V11.4844H197.361V43.5645ZM201.58 50.5664L199.471 46.9922V11.4844H201.58V50.5664ZM171.346 34.834L173.455 38.3203V60H171.346V34.834ZM167.127 27.9199L169.236 31.4648V60H167.127V27.9199ZM162.908 20.918L165.018 24.4922V60H162.908V20.918ZM163.641 11.4844H166.102L195.926 60H193.465L163.641 11.4844ZM168.621 11.4844H171.111L200.906 60H198.387L168.621 11.4844ZM173.572 11.4844H176.033L203.689 56.5723V11.4844H205.799V60C205.799 60 204.969 60 203.309 60L173.572 11.4844ZM160.799 14.9121V60H158.689V11.4844C158.689 11.4844 159.529 11.4844 161.209 11.4844L190.945 60H188.514L160.799 14.9121ZM227.596 35.5957L226.541 37.9102L213.885 11.4844H215.994L227.596 35.5957ZM229.705 30.9668L228.621 33.2812L218.104 11.4844H220.213L229.705 30.9668ZM231.814 26.3672L230.76 28.6816L222.322 11.4844H224.432L231.814 26.3672ZM229.148 43.6523L244.412 11.4844H246.521L231.258 43.6523V60H229.148V43.6523ZM233.367 43.6523L248.631 11.4844H250.74L235.477 43.6523V60H233.367V43.6523ZM237.586 43.6523L252.85 11.4844H254.959L239.695 43.6523V60H237.586V43.6523ZM225.984 41.4258L240.193 11.4844H242.303L227.039 43.6523V60H224.93V43.6523L209.666 11.4844H211.775L225.984 41.4258Z" fill="white"/>
</g>
<defs>
<filter id="filter0_d_325_284" x="0.158203" y="0.375" width="263.801" height="70.7344" filterUnits="userSpaceOnUse" color-interpolation-filters="sRGB">
<feFlood flood-opacity="0" result="BackgroundImageFix"/>
<feColorMatrix in="SourceAlpha" type="matrix" values="0 0 0 0 0 0 0 0 0 0 0 0 0 0 0 0 0 0 127 0" result="hardAlpha"/>
<feMorphology radius="3" operator="dilate" in="SourceAlpha" result="effect1_dropShadow_325_284"/>
<feOffset/>
<feGaussianBlur stdDeviation="3"/>
<feComposite in2="hardAlpha" operator="out"/>
<feColorMatrix type="matrix" values="0 0 0 0 0.0352941 0 0 0 0 0.768627 0 0 0 0 1 0 0 0 1 0"/>
<feBlend mode="normal" in2="BackgroundImageFix" result="effect1_dropShadow_325_284"/>
<feBlend mode="normal" in="SourceGraphic" in2="effect1_dropShadow_325_284" result="shape"/>
</filter>
</defs>
</svg>
